<svg width="500" height="500" viewBox="0 0 500 500" fill="none" xmlns="http://www.w3.org/2000/svg">
<g clip-path="url(#clip0_123_61)">
<path d="M550 -50H-50V550H550V-50Z" fill="white"/>
<path d="M550 -50H-50V550H550V-50Z" fill="white"/>
<mask id="mask0_123_61" style="mask-type:luminance" maskUnits="userSpaceOnUse" x="5" y="5" width="490" height="490">
<path d="M5.0365 5.03644H494.964V494.964H5.0365V5.03644Z" fill="white"/>
</mask>
<g mask="url(#mask0_123_61)">
<mask id="mask1_123_61" style="mask-type:luminance" maskUnits="userSpaceOnUse" x="5" y="5" width="490" height="490">
<path d="M250 5.03644C114.708 5.03644 5.0365 114.708 5.0365 250C5.0365 385.292 114.708 494.964 250 494.964C385.292 494.964 494.964 385.292 494.964 250C494.964 114.708 385.292 5.03644 250 5.03644Z" fill="white"/>
</mask>
<g mask="url(#mask1_123_61)">
<path d="M5.0365 5.03644H494.964V494.964H5.0365V5.03644Z" fill="white"/>
</g>
</g>
<path d="M41.8646 349.198L456.562 154.886" stroke="#FFE500" stroke-width="8.77435" stroke-linecap="round"/>
<mask id="mask2_123_61" style="mask-type:luminance" maskUnits="userSpaceOnUse" x="56" y="157" width="254" height="169">
<path d="M56 157.333H309.333V325.333H56V157.333Z" fill="white"/>
</mask>
<g mask="url(#mask2_123_61)">
<mask id="mask3_123_61" style="mask-type:luminance" maskUnits="userSpaceOnUse" x="23" y="158" width="286" height="248">
<path d="M23.9635 241.036L247.208 158.536L308.036 323.146L84.7916 405.641L23.9635 241.036Z" fill="white"/>
</mask>
<g mask="url(#mask3_123_61)">
<mask id="mask4_123_61" style="mask-type:luminance" maskUnits="userSpaceOnUse" x="23" y="-310" width="1551" height="716">
<path d="M23.9635 241.036L1512.63 -309.089L1573.45 -144.479L84.7916 405.641L23.9635 241.036Z" fill="white"/>
</mask>
<g mask="url(#mask4_123_61)">
<path d="M1542.3 -214.984C1539.99 -216.313 1536.68 -215.453 1535.35 -213.141C1471.57 -106.318 1414.54 -124.875 1354.13 -144.719C1295.35 -164.083 1234.49 -184.13 1170.01 -86.1302C1169.48 -85.5729 1168.96 -85.0208 1168.76 -84.5833C1104.98 22.2448 1047.96 3.68751 987.542 -16.1615C925.932 -36.2917 862.13 -57.4323 794.167 56.7552C793.969 57.1927 793.766 57.6302 793.682 58.3906C732.354 154.13 676.958 136.063 618.5 116.583C560.042 97.1042 498.87 77.1719 434.375 175.172C433.854 175.729 433.333 176.281 432.812 176.839C369.036 283.661 312.005 265.109 251.594 245.26C188.99 224.406 125.307 203.583 57.5468 317.333C56.2187 319.641 57.078 322.958 59.3853 324.286C61.6978 325.615 65.0155 324.755 66.3437 322.448C130.115 215.62 187.146 234.177 247.557 254.026C283.109 265.609 319.213 277.719 356.635 263.885C381.266 254.786 406.51 234.547 432.12 195.635C432.646 195.078 433.281 194.844 433.687 193.969C497.463 87.1458 554.49 105.698 614.906 125.547C650.453 137.13 686.557 149.24 723.984 135.406C751.49 125.24 779.625 101.031 808.396 52.9531C808.599 52.5156 808.802 52.0729 808.885 51.3177C870.208 -44.4219 925.604 -26.3542 983.948 -7.19791C1019.49 4.39063 1055.6 16.5 1093.03 2.66667C1117.66 -6.43749 1142.58 -26.5521 1168.51 -65.5833C1169.03 -66.1406 1169.55 -66.6979 1169.76 -67.1354C1233.53 -173.958 1290.56 -155.401 1350.97 -135.557C1386.52 -123.969 1422.63 -111.865 1460.05 -125.693C1487.56 -135.859 1515.69 -160.073 1544.46 -208.151C1545.47 -210.339 1544.73 -213.339 1542.3 -214.984Z" fill="#413C99"/>
</g>
</g>
</g>
<mask id="mask5_123_61" style="mask-type:luminance" maskUnits="userSpaceOnUse" x="193" y="174" width="253" height="168">
<path d="M193.333 174.667H445.333V341.333H193.333V174.667Z" fill="white"/>
</mask>
<g mask="url(#mask5_123_61)">
<mask id="mask6_123_61" style="mask-type:luminance" maskUnits="userSpaceOnUse" x="193" y="93" width="285" height="249">
<path d="M193.578 176.474L416.828 93.974L477.656 258.583L254.411 341.083L193.578 176.474Z" fill="white"/>
</mask>
<g mask="url(#mask6_123_61)">
<mask id="mask7_123_61" style="mask-type:luminance" maskUnits="userSpaceOnUse" x="-1072" y="94" width="1551" height="716">
<path d="M478.031 258.953L-1010.63 809.078L-1071.46 644.474L417.203 94.349L478.031 258.953Z" fill="white"/>
</mask>
<g mask="url(#mask7_123_61)">
<path d="M-1040.31 714.974C-1038 716.302 -1034.68 715.443 -1033.35 713.135C-969.578 606.313 -912.552 624.865 -852.135 644.714C-793.354 664.073 -732.505 684.12 -668.01 586.125C-667.49 585.568 -666.969 585.01 -666.766 584.573C-602.99 477.75 -545.964 496.302 -485.547 516.151C-423.937 536.281 -360.135 557.422 -292.177 443.234C-291.974 442.797 -291.771 442.359 -291.687 441.604C-230.359 345.865 -174.969 363.932 -116.505 383.411C-58.0468 402.891 3.12503 422.818 67.6198 324.818C68.1407 324.266 68.6615 323.708 69.1823 323.151C132.958 216.328 189.984 234.88 250.401 254.729C313.005 275.583 376.688 296.406 444.448 182.656C445.776 180.349 444.917 177.031 442.604 175.703C440.297 174.375 436.979 175.24 435.651 177.547C371.875 284.37 314.849 265.818 254.432 245.969C218.885 234.38 182.781 222.276 145.359 236.104C120.724 245.208 95.4844 265.443 69.8698 304.354C69.349 304.911 68.7084 305.146 68.3073 306.026C4.53128 412.849 -52.4948 394.292 -112.911 374.448C-148.458 362.859 -184.562 350.755 -221.99 364.583C-249.5 374.75 -277.635 398.964 -306.401 447.042C-306.604 447.479 -306.807 447.917 -306.891 448.672C-368.219 544.411 -423.609 526.344 -481.953 507.188C-517.5 495.599 -553.604 483.495 -591.031 497.323C-615.661 506.427 -640.583 526.542 -666.516 565.573C-667.036 566.13 -667.557 566.688 -667.76 567.125C-731.536 673.948 -788.562 655.396 -848.979 635.547C-884.526 623.964 -920.63 611.854 -958.057 625.682C-985.568 635.849 -1013.7 660.063 -1042.47 708.141C-1043.48 710.333 -1042.73 713.328 -1040.31 714.974Z" fill="#413C99"/>
</g>
</g>
</g>
</g>
<defs>
<clipPath id="clip0_123_61">
<rect width="500" height="500" rx="250" fill="white"/>
</clipPath>
</defs>
</svg>
